<svg viewBox="-208.93685471233033 0 417.87370942466066 100" xmlns="http://www.w3.org/2000/svg" xmlns:xlink="http://www.w3.org/1999/xlink" version="1.1" class="jsx-2263963463 artboard-inner" style="width: 339px; height: 81.125px; max-height: 100%;"><g transform="translate(-214.58198041057278 99.99936951172323) scale(1.866774371111918)" fill="#FFFFFF"><g id="line1"><path d="M3.024 0C20.016 0.072 31.608-11.376 31.608-26.424C31.608-41.040 19.872-52.848 3.024-52.848ZM25.128-26.424C25.128-16.848 18.576-8.928 9.432-6.984L9.432-45.864C17.928-43.488 25.128-35.712 25.128-26.424Z"></path><path d="M53.424-46.368L53.424-52.848L37.008-52.848L37.008 0L53.424 0L53.424-6.480L43.488-6.480L43.488-13.104L49.464-13.104L49.464-19.584L43.488-19.584L43.488-46.368Z"></path><path d="M77.112-52.848L77.112-47.664L65.376-52.848L59.760-52.848L59.760 0L66.168 0L66.168-45.288L77.112-40.464L77.112 0L83.592 0L83.592-52.848Z"></path><path d="M116.928-46.368L116.928-52.848C101.088-52.848 88.344-41.760 88.344-26.568C88.344-11.376 101.088 0 116.928 0L116.928-19.512L110.448-19.512L110.448-7.128C101.232-9.360 94.752-17.352 94.752-26.568C94.752-38.376 104.904-46.368 116.928-46.368Z"></path><path d="M140.616-52.848L140.616-19.296C138.672-18.504 137.088-17.928 135.216-17.208C133.200-18.000 131.616-18.504 129.600-19.296L129.600-52.848L123.192-52.848L123.192 0L129.600 0L129.600-12.384L135.216-10.224L140.616-12.384L140.616 0L147.096 0L147.096-52.848Z"></path><path d="M171.144-52.848L171.144-11.736C171.144-8.856 168.840-6.480 165.888-6.480L165.456-6.480C162.504-6.480 160.200-8.856 160.200-11.736L160.200-52.848L153.792-52.848L153.792-11.736C153.792-5.328 159.048 0 165.456 0L165.888 0C172.368 0 177.624-5.328 177.624-11.736L177.624-52.848Z"></path><path d="M204.768-53.568C192.168-53.568 182.664-42.912 182.664-31.464C182.664-18.864 193.392-9.360 204.768-9.360C217.368-9.360 226.872-20.088 226.872-31.464C226.872-44.064 216.216-53.568 204.768-53.568ZM204.768-15.840C196.056-15.840 189.144-23.184 189.144-31.464C189.144-40.248 196.488-47.088 204.768-47.088C213.552-47.088 220.464-39.744 220.464-31.464C220.464-22.752 213.120-15.840 204.768-15.840ZM191.520 0L218.088 0L218.088-6.480L191.520-6.480Z"></path></g></g></svg>